<mxfile host="app.diagrams.net" agent="Mozilla/5.0 (Macintosh; Intel Mac OS X 10_15_7) AppleWebKit/537.36 (KHTML, like Gecko) Chrome/138.0.0.0 Safari/537.36" version="28.0.7">
  <diagram name="Page-1" id="Enlzoj0jW9OrRIPsBXBB">
    <mxGraphModel dx="972" dy="524" grid="1" gridSize="10" guides="1" tooltips="1" connect="1" arrows="1" fold="1" page="1" pageScale="1" pageWidth="850" pageHeight="1100" math="0" shadow="0">
      <root>
        <mxCell id="0" />
        <mxCell id="1" parent="0" />
        <mxCell id="m5_4I0K0eCY9Succet0--63" value="" style="rounded=0;whiteSpace=wrap;html=1;" vertex="1" parent="1">
          <mxGeometry x="24.64" y="133" width="745.36" height="507" as="geometry" />
        </mxCell>
        <mxCell id="m5_4I0K0eCY9Succet0--57" value="" style="rounded=1;whiteSpace=wrap;html=1;dashed=1;dashPattern=8 8;" vertex="1" parent="1">
          <mxGeometry x="290" y="470" width="370" height="140" as="geometry" />
        </mxCell>
        <mxCell id="m5_4I0K0eCY9Succet0--10" value="&lt;font style=&quot;font-size: 14px;&quot;&gt;Chunks data (upload) /&amp;nbsp;&lt;/font&gt;&lt;div&gt;&lt;font style=&quot;font-size: 14px;&quot;&gt;data request (download)&lt;/font&gt;&lt;/div&gt;" style="text;html=1;align=center;verticalAlign=middle;whiteSpace=wrap;rounded=0;rotation=-33;" vertex="1" parent="1">
          <mxGeometry x="144.64" y="228" width="174.35" height="40" as="geometry" />
        </mxCell>
        <mxCell id="m5_4I0K0eCY9Succet0--11" value="" style="endArrow=classic;html=1;rounded=0;startArrow=none;startFill=0;" edge="1" parent="1">
          <mxGeometry width="50" height="50" relative="1" as="geometry">
            <mxPoint x="174" y="311" as="sourcePoint" />
            <mxPoint x="320" y="220" as="targetPoint" />
          </mxGeometry>
        </mxCell>
        <mxCell id="m5_4I0K0eCY9Succet0--28" value="" style="endArrow=none;html=1;rounded=0;startArrow=classic;startFill=1;endFill=0;" edge="1" parent="1">
          <mxGeometry width="50" height="50" relative="1" as="geometry">
            <mxPoint x="190" y="347" as="sourcePoint" />
            <mxPoint x="336" y="256" as="targetPoint" />
          </mxGeometry>
        </mxCell>
        <mxCell id="m5_4I0K0eCY9Succet0--29" value="&lt;font style=&quot;font-size: 14px;&quot;&gt;Chunks mapping info&lt;/font&gt;" style="text;html=1;align=center;verticalAlign=middle;whiteSpace=wrap;rounded=0;rotation=-33;" vertex="1" parent="1">
          <mxGeometry x="205.01999999999998" y="293.55" width="137.98" height="40" as="geometry" />
        </mxCell>
        <mxCell id="m5_4I0K0eCY9Succet0--31" value="" style="endArrow=classic;html=1;rounded=0;startArrow=classic;startFill=1;" edge="1" parent="1">
          <mxGeometry width="50" height="50" relative="1" as="geometry">
            <mxPoint x="480" y="226" as="sourcePoint" />
            <mxPoint x="610" y="226" as="targetPoint" />
          </mxGeometry>
        </mxCell>
        <mxCell id="m5_4I0K0eCY9Succet0--32" value="&lt;font style=&quot;font-size: 14px;&quot;&gt;Chunks mapping info&lt;/font&gt;" style="text;html=1;align=center;verticalAlign=middle;whiteSpace=wrap;rounded=0;rotation=0;" vertex="1" parent="1">
          <mxGeometry x="476" y="193" width="137.98" height="31" as="geometry" />
        </mxCell>
        <mxCell id="m5_4I0K0eCY9Succet0--44" value="" style="endArrow=classic;html=1;rounded=0;startArrow=none;startFill=0;endFill=1;" edge="1" parent="1" target="m5_4I0K0eCY9Succet0--57">
          <mxGeometry width="50" height="50" relative="1" as="geometry">
            <mxPoint x="180" y="390" as="sourcePoint" />
            <mxPoint x="460" y="460" as="targetPoint" />
          </mxGeometry>
        </mxCell>
        <mxCell id="m5_4I0K0eCY9Succet0--45" value="" style="group" vertex="1" connectable="0" parent="1">
          <mxGeometry x="330" y="500" width="80" height="80" as="geometry" />
        </mxCell>
        <mxCell id="m5_4I0K0eCY9Succet0--34" value="" style="whiteSpace=wrap;html=1;aspect=fixed;" vertex="1" parent="m5_4I0K0eCY9Succet0--45">
          <mxGeometry width="80" height="80" as="geometry" />
        </mxCell>
        <mxCell id="m5_4I0K0eCY9Succet0--39" value="&lt;font style=&quot;font-size: 16px;&quot;&gt;Storage&lt;/font&gt;&lt;div&gt;&lt;font style=&quot;font-size: 16px;&quot;&gt;Node&lt;/font&gt;&lt;/div&gt;" style="text;html=1;align=center;verticalAlign=middle;whiteSpace=wrap;rounded=0;" vertex="1" parent="m5_4I0K0eCY9Succet0--45">
          <mxGeometry y="10" width="80" height="60" as="geometry" />
        </mxCell>
        <mxCell id="m5_4I0K0eCY9Succet0--46" value="" style="group" vertex="1" connectable="0" parent="1">
          <mxGeometry x="436" y="500" width="80" height="80" as="geometry" />
        </mxCell>
        <mxCell id="m5_4I0K0eCY9Succet0--40" value="" style="whiteSpace=wrap;html=1;aspect=fixed;" vertex="1" parent="m5_4I0K0eCY9Succet0--46">
          <mxGeometry width="80" height="80" as="geometry" />
        </mxCell>
        <mxCell id="m5_4I0K0eCY9Succet0--41" value="&lt;font style=&quot;font-size: 16px;&quot;&gt;Storage&lt;/font&gt;&lt;div&gt;&lt;font style=&quot;font-size: 16px;&quot;&gt;Node&lt;/font&gt;&lt;/div&gt;" style="text;html=1;align=center;verticalAlign=middle;whiteSpace=wrap;rounded=0;" vertex="1" parent="m5_4I0K0eCY9Succet0--46">
          <mxGeometry y="10" width="80" height="60" as="geometry" />
        </mxCell>
        <mxCell id="m5_4I0K0eCY9Succet0--47" value="" style="group" vertex="1" connectable="0" parent="1">
          <mxGeometry x="544.99" y="500" width="80" height="80" as="geometry" />
        </mxCell>
        <mxCell id="m5_4I0K0eCY9Succet0--42" value="" style="whiteSpace=wrap;html=1;aspect=fixed;" vertex="1" parent="m5_4I0K0eCY9Succet0--47">
          <mxGeometry width="80" height="80" as="geometry" />
        </mxCell>
        <mxCell id="m5_4I0K0eCY9Succet0--43" value="&lt;font style=&quot;font-size: 16px;&quot;&gt;Storage&lt;/font&gt;&lt;div&gt;&lt;font style=&quot;font-size: 16px;&quot;&gt;Node&lt;/font&gt;&lt;/div&gt;" style="text;html=1;align=center;verticalAlign=middle;whiteSpace=wrap;rounded=0;" vertex="1" parent="m5_4I0K0eCY9Succet0--47">
          <mxGeometry y="10" width="80" height="60" as="geometry" />
        </mxCell>
        <mxCell id="m5_4I0K0eCY9Succet0--49" value="" style="group" vertex="1" connectable="0" parent="1">
          <mxGeometry x="346" y="160" width="120" height="110" as="geometry" />
        </mxCell>
        <mxCell id="m5_4I0K0eCY9Succet0--8" value="" style="whiteSpace=wrap;html=1;aspect=fixed;rounded=1;" vertex="1" parent="m5_4I0K0eCY9Succet0--49">
          <mxGeometry x="4" width="110" height="110" as="geometry" />
        </mxCell>
        <mxCell id="m5_4I0K0eCY9Succet0--9" value="&lt;font style=&quot;font-size: 18px;&quot;&gt;Metadata&lt;/font&gt;&lt;div&gt;&lt;font style=&quot;font-size: 18px;&quot;&gt;Service&lt;/font&gt;&lt;/div&gt;" style="text;html=1;align=center;verticalAlign=middle;whiteSpace=wrap;rounded=0;" vertex="1" parent="m5_4I0K0eCY9Succet0--49">
          <mxGeometry y="16" width="120" height="80" as="geometry" />
        </mxCell>
        <mxCell id="m5_4I0K0eCY9Succet0--50" value="" style="group" vertex="1" connectable="0" parent="1">
          <mxGeometry x="605" y="185" width="130" height="100" as="geometry" />
        </mxCell>
        <mxCell id="m5_4I0K0eCY9Succet0--30" value="" style="shape=datastore;whiteSpace=wrap;html=1;" vertex="1" parent="m5_4I0K0eCY9Succet0--50">
          <mxGeometry x="35" width="60" height="60" as="geometry" />
        </mxCell>
        <mxCell id="m5_4I0K0eCY9Succet0--33" value="&lt;font style=&quot;font-size: 18px;&quot;&gt;Metadata DB&lt;/font&gt;" style="text;strokeColor=none;fillColor=none;html=1;fontSize=24;fontStyle=0;verticalAlign=middle;align=center;" vertex="1" parent="m5_4I0K0eCY9Succet0--50">
          <mxGeometry y="60" width="130" height="40" as="geometry" />
        </mxCell>
        <mxCell id="m5_4I0K0eCY9Succet0--56" value="" style="group;rounded=1;" vertex="1" connectable="0" parent="1">
          <mxGeometry x="39" y="297" width="130" height="128" as="geometry" />
        </mxCell>
        <mxCell id="m5_4I0K0eCY9Succet0--4" value="&lt;font style=&quot;font-size: 18px;&quot;&gt;Client API&lt;/font&gt;" style="text;strokeColor=none;fillColor=none;html=1;fontSize=24;fontStyle=0;verticalAlign=middle;align=center;" vertex="1" parent="m5_4I0K0eCY9Succet0--56">
          <mxGeometry y="88" width="130" height="40" as="geometry" />
        </mxCell>
        <mxCell id="m5_4I0K0eCY9Succet0--55" value="File chunking" style="whiteSpace=wrap;html=1;aspect=fixed;rounded=1;" vertex="1" parent="m5_4I0K0eCY9Succet0--56">
          <mxGeometry x="21" width="89" height="89" as="geometry" />
        </mxCell>
        <mxCell id="m5_4I0K0eCY9Succet0--58" value="&lt;font style=&quot;font-size: 14px;&quot;&gt;Chunks (upload) /&lt;/font&gt;&lt;div&gt;&lt;font style=&quot;font-size: 14px;&quot;&gt;chunk request (download)&lt;/font&gt;&lt;/div&gt;" style="text;html=1;align=center;verticalAlign=middle;whiteSpace=wrap;rounded=0;rotation=27;" vertex="1" parent="1">
          <mxGeometry x="178.51" y="390" width="190.99" height="40" as="geometry" />
        </mxCell>
        <mxCell id="m5_4I0K0eCY9Succet0--59" value="" style="endArrow=classic;html=1;rounded=0;entryX=0.931;entryY=1.125;entryDx=0;entryDy=0;entryPerimeter=0;exitX=0;exitY=0.193;exitDx=0;exitDy=0;exitPerimeter=0;" edge="1" parent="1" source="m5_4I0K0eCY9Succet0--57" target="m5_4I0K0eCY9Succet0--4">
          <mxGeometry width="50" height="50" relative="1" as="geometry">
            <mxPoint x="280" y="510" as="sourcePoint" />
            <mxPoint x="276.5700000000002" y="493" as="targetPoint" />
          </mxGeometry>
        </mxCell>
        <mxCell id="m5_4I0K0eCY9Succet0--60" value="&lt;font style=&quot;font-size: 14px;&quot;&gt;Status (upload) /&amp;nbsp;&lt;/font&gt;&lt;div&gt;&lt;font style=&quot;font-size: 14px;&quot;&gt;Chunks (download)&lt;/font&gt;&lt;/div&gt;" style="text;html=1;align=center;verticalAlign=middle;whiteSpace=wrap;rounded=0;rotation=27;" vertex="1" parent="1">
          <mxGeometry x="144.64000000000001" y="460" width="140" height="40" as="geometry" />
        </mxCell>
        <mxCell id="m5_4I0K0eCY9Succet0--61" value="" style="endArrow=classic;html=1;rounded=0;exitX=0.476;exitY=-0.014;exitDx=0;exitDy=0;exitPerimeter=0;" edge="1" parent="1" source="m5_4I0K0eCY9Succet0--57">
          <mxGeometry width="50" height="50" relative="1" as="geometry">
            <mxPoint x="360" y="460" as="sourcePoint" />
            <mxPoint x="420" y="280" as="targetPoint" />
          </mxGeometry>
        </mxCell>
        <mxCell id="m5_4I0K0eCY9Succet0--62" value="Node failure notification" style="text;html=1;align=center;verticalAlign=middle;whiteSpace=wrap;rounded=0;fontSize=14;" vertex="1" parent="1">
          <mxGeometry x="450" y="360" width="160" height="30" as="geometry" />
        </mxCell>
      </root>
    </mxGraphModel>
  </diagram>
</mxfile>
